<svg width="12" height="16" viewBox="0 0 12 16" fill="none" xmlns="http://www.w3.org/2000/svg">
<path d="M11.448 5.51724C11.448 6.13913 11.1284 7.07405 10.5687 8.1939C10.0209 9.29004 9.28514 10.4835 8.54135 11.5941C7.79889 12.7028 7.05543 13.7186 6.49703 14.4579C6.30733 14.709 6.13921 14.928 6 15.1075C5.8608 14.928 5.69267 14.709 5.50297 14.4579C4.94457 13.7186 4.2011 12.7028 3.45865 11.5941C2.71486 10.4835 1.97905 9.29004 1.43128 8.1939C0.871643 7.07405 0.552 6.13913 0.552 5.51724C0.552 2.81769 2.94665 0.552 6 0.552C9.05335 0.552 11.448 2.81769 11.448 5.51724Z" stroke="#0066FF" stroke-width="1.104"/>
<path d="M7.448 6C7.448 6.79971 6.79971 7.448 6 7.448C5.20029 7.448 4.552 6.79971 4.552 6C4.552 5.20029 5.20029 4.552 6 4.552C6.79971 4.552 7.448 5.20029 7.448 6Z" stroke="#0066FF" stroke-width="1.104"/>
</svg>
