<svg width="38" height="22" viewBox="0 0 38 22" fill="none" xmlns="http://www.w3.org/2000/svg">
<path fill-rule="evenodd" clip-rule="evenodd" d="M17.2913 10.0328C17.0053 10.2228 17.0053 10.4611 17.0053 10.6272V13.5995C17.0053 13.7663 17.0053 14.0039 17.2913 14.1939H16.082C16.3681 14.0039 16.3681 13.7663 16.3681 13.5995V10.6272C16.3681 10.4611 16.3681 10.2231 16.082 10.0328H17.2913ZM17.7466 14.1939C17.9277 14.075 17.9659 13.932 17.9659 13.7779V11.7269C17.9659 11.5726 17.9277 11.4296 17.7466 11.3107H18.2148C18.3456 11.3107 18.4399 11.2871 18.5453 11.2157V11.6792C18.7949 11.2694 19.1825 11.1918 19.4816 11.1918C19.7369 11.1918 20.2484 11.233 20.5167 11.7503C20.8228 11.2814 21.2591 11.1918 21.5896 11.1918C22.6563 11.1918 22.7372 11.9699 22.7372 12.3863V13.7777C22.7372 13.9318 22.7754 14.0748 22.9556 14.1937H21.9266C22.1077 14.0748 22.1451 13.9318 22.1451 13.7777V12.5293C22.1451 12.1604 22.0704 11.6433 21.4151 11.6433C20.6791 11.6433 20.6474 12.2204 20.6474 12.4934V13.7777C20.6474 13.9318 20.6847 14.0748 20.8658 14.1937H19.8373C20.0179 14.0748 20.0543 13.9318 20.0543 13.7777V12.487C20.0543 12.2731 20.03 11.6433 19.3128 11.6433C18.5581 11.6433 18.5581 12.2731 18.5581 12.3625V13.7779C18.5581 13.932 18.5954 14.075 18.7762 14.1939H17.7466ZM23.0897 15.507C23.2708 15.3886 23.3081 15.2461 23.3081 15.0911V11.7267C23.3081 11.5724 23.2708 11.4294 23.0897 11.3105H23.5452C23.6755 11.3105 23.7702 11.2869 23.8752 11.2155V11.6853C24.2196 11.2812 24.655 11.1918 24.9921 11.1918C26.065 11.1918 26.5645 11.8813 26.5645 12.6364C26.5645 13.5038 26.0333 14.2825 24.9488 14.2825C24.7807 14.2825 24.6118 14.2587 24.4435 14.2173L24.0627 13.6886C24.3002 13.7893 24.5052 13.8307 24.8113 13.8307C24.9793 13.8307 25.9154 13.825 25.9154 12.6955C25.9154 11.9824 25.4039 11.6733 24.8616 11.6733C24.3501 11.6733 23.9007 11.9113 23.9007 12.5173V15.0908C23.9007 15.24 23.9438 15.3884 24.1503 15.5068H23.0897V15.507ZM27.562 12.2795C27.6492 11.8933 28.004 11.6435 28.4777 11.6435C28.9462 11.6435 29.2646 11.8933 29.302 12.2795H27.562ZM30.0127 12.6662C30.0314 12.0358 29.6827 11.1918 28.5096 11.1918C27.48 11.1918 26.8505 11.8397 26.8505 12.7198C26.8505 13.7236 27.5929 14.2825 28.6902 14.2825C29.0273 14.2825 29.3076 14.2528 29.6447 14.1521L30.0562 13.5336C29.6825 13.7297 29.302 13.8307 28.821 13.8307C27.8797 13.8307 27.4684 13.296 27.4993 12.6662H30.0127ZM30.181 14.1939C30.3621 14.075 30.3995 13.932 30.3995 13.7779V11.7269C30.3995 11.5726 30.3621 11.4296 30.181 11.3107H30.6361C30.7673 11.3107 30.8616 11.2871 30.9608 11.2157V11.6917C31.1046 11.4712 31.3856 11.1921 31.8024 11.1921C31.8784 11.1921 31.947 11.1978 32.0208 11.2157V11.7978C31.921 11.7326 31.8153 11.7033 31.6787 11.7033C31.3599 11.7033 30.9923 11.8692 30.9923 12.553V13.7779C30.9923 13.9261 31.0353 14.075 31.241 14.1939H30.181ZM32.9971 11.3107C33.1278 11.3107 33.2221 11.2871 33.3276 11.2157V13.7779C33.3276 13.932 33.3658 14.075 33.546 14.1939H32.517C32.6981 14.075 32.7354 13.932 32.7354 13.7779V11.7269C32.7354 11.5726 32.6981 11.4296 32.517 11.3107H32.9971ZM32.9971 10.1342C33.2094 10.1342 33.3961 10.3122 33.3961 10.5142C33.3961 10.7159 33.2094 10.8945 32.9971 10.8945C32.7844 10.8945 32.5977 10.7159 32.5977 10.5142C32.5977 10.3122 32.7844 10.1342 32.9971 10.1342ZM34.5624 11.2448C34.7364 11.2155 34.9245 11.1918 35.13 11.1918C36.1651 11.1918 36.2655 11.8219 36.2655 12.2147V13.374C36.2655 13.7181 36.4652 13.7838 36.7135 13.7957H36.8326L36.5329 14.1939H36.4395C36.2402 14.1939 35.6722 14.1818 35.6722 13.5279V12.5943C35.4786 12.72 35.3235 12.7378 35.0108 12.8082C34.7307 12.8739 34.3814 12.9689 34.3814 13.3317C34.3814 13.4626 34.4374 13.8307 35.0108 13.8307C35.1803 13.8307 35.3666 13.807 35.5536 13.7538L35.1546 14.2294C35.0244 14.2649 34.89 14.2828 34.7551 14.2825C34.1507 14.2825 33.7453 13.8968 33.7453 13.3435C33.7453 12.7016 34.3374 12.5825 34.8052 12.4814C35.342 12.3625 35.6467 12.3154 35.6467 12.0179C35.6467 11.786 35.4474 11.6433 35.0737 11.6433C34.9425 11.6433 34.5492 11.661 34.1689 11.8633L34.5624 11.2448ZM37.4511 10.0328C37.5823 10.0328 37.6752 10.0092 37.7816 9.93779V13.7779C37.7816 13.932 37.8189 14.075 38 14.1939H36.9715C37.1526 14.075 37.1895 13.932 37.1895 13.7779V10.449C37.1895 10.294 37.1526 10.1515 36.9715 10.0328H37.4511ZM17.0219 19.6572C17.0219 19.8286 17.0219 20.0727 17.3032 20.2684H16.1164C16.3977 20.0727 16.3977 19.8284 16.3977 19.6572V16.4815L15.6691 16.4758C15.5224 16.4758 15.2592 16.5002 15.033 16.732L15.2778 15.9689C15.4243 15.9933 15.5108 15.9933 15.6691 15.9933H18.0377C18.1654 15.9933 18.3003 15.9812 18.4103 15.9689L18.1969 16.6838C18.08 16.4761 17.8596 16.4761 17.7072 16.4761L17.0219 16.4817V19.6572ZM19.3604 17.6487C20.0833 17.6487 20.4376 18.1979 20.4376 18.7719C20.4376 19.4497 20.0093 19.8954 19.3848 19.8954C18.663 19.8954 18.308 19.3458 18.308 18.7719C18.3082 18.0936 18.7368 17.6487 19.3604 17.6487ZM19.3978 17.1839C18.4301 17.1839 17.6719 17.8499 17.6719 18.7719C17.6719 19.5847 18.2836 20.3598 19.3424 20.3598C20.3149 20.3598 21.0742 19.7002 21.0742 18.7719C21.0742 17.9595 20.4618 17.1839 19.3978 17.1839ZM21.7909 15.9933C21.9198 15.9933 22.0111 15.9689 22.1157 15.8955V19.8227C22.2865 19.8586 22.5254 19.8954 22.7274 19.8954C23.4489 19.8954 23.8894 19.4626 23.8894 18.7719C23.8894 18.1068 23.4979 17.6487 22.9112 17.6487C22.7026 17.6487 22.4823 17.7033 22.2867 17.801L22.5682 17.3491C22.6172 17.2696 22.7026 17.1839 23.1068 17.1839C23.9568 17.1839 24.5266 17.7769 24.5266 18.6743C24.5266 20.3414 22.7877 20.3601 22.5734 20.3601C22.1216 20.3601 21.662 20.305 21.3377 20.2557C21.4969 20.1341 21.5333 20 21.5333 19.8407V16.4208C21.5333 16.2624 21.4969 16.1153 21.3197 15.9933H21.7909ZM25.8391 17.2394C26.0099 17.2087 26.1941 17.1839 26.3955 17.1839C27.411 17.1839 27.5094 17.8322 27.5094 18.2343V19.4258C27.5094 19.7797 27.705 19.8468 27.9503 19.8586H28.066L27.7724 20.2684H27.6809C27.4852 20.2684 26.9286 20.2555 26.9286 19.5847V18.6257C26.7387 18.7532 26.5852 18.7719 26.2795 18.8451C26.0042 18.9121 25.6612 19.0103 25.6612 19.3822C25.6612 19.5167 25.7159 19.8954 26.2795 19.8954C26.4451 19.8954 26.6273 19.8711 26.8116 19.8159L26.4201 20.3046C26.2929 20.341 26.1613 20.3596 26.029 20.3596C25.4348 20.3596 25.0374 19.9627 25.0374 19.3949C25.0374 18.7348 25.6189 18.6127 26.0768 18.5089C26.6034 18.3873 26.9038 18.3384 26.9038 18.0329C26.9038 17.794 26.7068 17.6485 26.3401 17.6485C26.2112 17.6485 25.8259 17.6667 25.4531 17.8735L25.8391 17.2394ZM30.8112 17.9417C30.6456 17.8072 30.378 17.6487 29.9982 17.6487C29.4475 17.6487 28.8843 17.9724 28.8843 18.7112C28.8843 19.401 29.3491 19.8957 30.2125 19.8957C30.7996 19.8957 31.0806 19.7195 31.2214 19.6152C30.8663 20.2864 30.7445 20.3601 30.0649 20.3601C29.6304 20.3601 29.0924 20.3171 28.6579 19.865C28.4377 19.6395 28.2477 19.2847 28.2477 18.7964C28.2477 18.3268 28.4377 17.9356 28.7073 17.6669C29.1045 17.2696 29.5814 17.1839 30.0897 17.1839C30.5181 17.1839 30.31 17.2203 30.8112 17.2696V17.9417ZM33.9206 17.9417C33.7555 17.8072 33.4856 17.6487 33.1062 17.6487C32.556 17.6487 31.9923 17.9724 31.9923 18.7112C31.9923 19.401 32.4571 19.8957 33.3205 19.8957C33.9076 19.8957 34.1896 19.7195 34.3308 19.6152C33.9753 20.2864 33.8525 20.3601 33.1743 20.3601C32.7398 20.3601 32.2011 20.3171 31.7659 19.865C31.5457 19.6395 31.3562 19.2847 31.3562 18.7964C31.3562 18.3268 31.5457 17.9356 31.8153 17.6669C32.2134 17.2696 32.6903 17.1839 33.1978 17.1839C33.6266 17.1839 33.418 17.2203 33.9206 17.2696V17.9417ZM36.1837 17.6487C36.9052 17.6487 37.2607 18.1979 37.2607 18.7719C37.2607 19.4497 36.8328 19.8954 36.2083 19.8954C35.4868 19.8954 35.1318 19.3458 35.1318 18.7719C35.1318 18.0936 35.5597 17.6487 36.1837 17.6487ZM36.2202 17.1839C35.2536 17.1839 34.4957 17.8499 34.4957 18.7719C34.4957 19.5847 35.1074 20.3598 36.166 20.3598C37.1387 20.3598 37.8977 19.7002 37.8977 18.7719C37.8975 17.9595 37.2851 17.1839 36.2202 17.1839ZM6.72054 3.91461C8.93081 3.91461 12.8658 6.21087 12.8658 6.21087C12.8658 6.21087 11.6858 6.30156 11.0498 6.51273C10.4137 6.72481 10.1108 7.87294 10.1108 7.87294C10.1108 7.87294 7.20518 19.083 6.90228 20.1703C6.59938 21.2588 6.02432 21.5 6.02432 21.5H9.96022C11.6553 21.5 11.8972 20.2912 11.8972 20.2912L15.2874 7.47992C18.2549 8.62805 20.2222 7.69155 22.8859 5.21344C20.9189 5.87877 19.8892 5.2439 19.8892 5.2439C16.4988 4.39786 15.258 0.5 9.59651 0.5C3.93476 0.5 2.17975 5.30482 2.17975 5.30482C2.17975 5.30482 3.99579 3.91461 6.72054 3.91461ZM10.323 6.24087H7.02321C5.72142 6.24087 5.0252 6.51273 5.0252 6.51273C4.38911 6.72481 4.08621 7.87294 4.08621 7.87294C4.08621 7.87294 1.18063 19.083 0.877958 20.1703C0.575057 21.2588 0 21.5 0 21.5H3.93476C5.631 21.5 5.8731 20.2912 5.8731 20.2912L9.26332 7.47992C9.53638 6.54319 10.323 6.24087 10.323 6.24087Z" fill="#922B3F"/>
</svg>
