<svg width="27" height="31" viewBox="0 0 27 31" fill="none" xmlns="http://www.w3.org/2000/svg">
<path d="M7.60199 30.9961C5.53018 26.6968 6.63411 24.2343 8.22587 21.9131C9.96922 19.3711 10.4201 16.8562 10.4201 16.8562C10.4201 16.8562 11.7923 18.6329 11.2422 21.4132C13.6639 18.7259 14.1226 14.4421 13.7552 12.8011C19.2302 16.616 21.5702 24.8756 18.4178 30.9981C35.1925 21.5372 22.5906 7.37994 20.3963 5.78537C21.1271 7.37994 21.267 10.0789 19.788 11.3906C17.2866 1.9375 11.1042 0 11.1042 0C11.835 4.87475 8.45326 10.2068 5.192 14.1903C5.07733 12.2469 4.95489 10.9043 3.93065 9.04425C3.70131 12.5763 0.993961 15.4554 0.259303 18.9933C-0.733845 23.7848 1.00368 27.2936 7.60005 31L7.60199 30.9961Z" fill="url(#paint0_linear)"/>
<defs>
<linearGradient id="paint0_linear" x1="1.63125" y1="29.3702" x2="29.2627" y2="6.28375" gradientUnits="userSpaceOnUse">
<stop stop-color="#FF1F01"/>
<stop offset="0.411458" stop-color="#FD5D1B"/>
<stop offset="1" stop-color="#FFC700"/>
</linearGradient>
</defs>
</svg>
