<svg width="38" height="30" viewBox="0 0 38 30" fill="none" xmlns="http://www.w3.org/2000/svg">
<path d="M2.81686 29.4999C2.65993 29.4235 2.48495 29.4391 2.3199 29.3986C1.61548 29.2237 0.957972 28.9614 0.478142 28.3731C-0.0287469 27.7508 -0.119843 27.0336 0.144425 26.3017C0.402379 25.5873 0.996755 25.2099 1.70387 25.0957C2.79612 24.9199 3.61598 25.4189 4.01644 26.4361C4.15353 26.7832 4.28702 27.1339 4.5576 27.4037C4.931 27.7719 5.38197 27.7268 5.65255 27.2757C5.83463 26.9649 5.92832 26.6086 5.92313 26.2465C5.92614 20.3086 5.92614 14.371 5.92313 8.43367C5.92434 8.34148 5.90751 8.24996 5.87363 8.16449C5.83975 8.07901 5.78951 8.0013 5.72585 7.93589C5.66218 7.87047 5.58637 7.81868 5.50286 7.78355C5.41934 7.74841 5.3298 7.73063 5.23947 7.73125C4.91657 7.7248 4.59278 7.73125 4.26988 7.73125C4.02414 7.72847 3.78676 7.63977 3.59735 7.47994C3.40793 7.32011 3.27794 7.09882 3.22905 6.85299C3.18358 6.59813 3.23066 6.3351 3.36148 6.11312C3.4923 5.89113 3.69789 5.72542 3.93977 5.647C4.11989 5.5924 4.30765 5.56875 4.49537 5.57703H13.5815C14.0893 5.57703 14.3292 5.4058 14.5114 4.91511C14.6936 4.42443 15.1833 4.10682 15.7615 4.10498C16.5353 4.10498 17.3101 4.10498 18.0839 4.10498H30.0797C30.417 4.10498 30.417 4.10498 30.4179 4.44837C30.4179 4.98539 30.4179 5.52241 30.4179 6.05943C30.4179 6.3485 30.4179 6.34942 30.1239 6.34942H26.3809C25.7495 6.34942 25.4113 6.69925 25.4113 7.34459C25.4113 11.8402 25.4113 16.3355 25.4113 20.8306C25.4113 21.4161 25.2038 21.8653 24.6988 22.1931C23.2764 23.1137 21.8703 24.061 20.4596 24.9963C20.3665 25.0603 20.267 25.1143 20.1629 25.1574C19.5848 25.3839 19.0535 25.035 19.0093 24.4034C19.003 24.3197 19.0093 24.235 19.0093 24.1503C19.0093 18.6499 19.0093 13.1496 19.0093 7.64931C19.0089 7.51167 18.9995 7.3742 18.9814 7.2378C18.9038 6.64217 18.5899 6.35494 18.0019 6.35034C17.2957 6.34482 16.5885 6.35034 15.8823 6.35034C15.4007 6.35034 15.1896 6.50776 15.0237 6.96622C14.9437 7.19124 14.7974 7.38544 14.6049 7.52211C14.4124 7.65877 14.1831 7.73119 13.9486 7.72941C13.7303 7.73493 13.5129 7.72941 13.2947 7.72941C13.2042 7.72643 13.1142 7.74212 13.0298 7.77554C12.9455 7.80897 12.8686 7.85943 12.8038 7.9239C12.7391 7.98838 12.6877 8.06554 12.6529 8.15077C12.618 8.23599 12.6004 8.32752 12.6011 8.41986C12.6011 8.48891 12.6011 8.55795 12.6011 8.627C12.6011 13.0919 12.6011 17.5566 12.6011 22.0209C12.6151 22.7851 12.3943 23.5345 11.9697 24.1641C11.6495 24.6308 11.2076 24.9641 10.753 25.2771C9.26301 26.3017 7.76038 27.3089 6.27759 28.3445C5.53079 28.8665 4.7443 29.2753 3.84958 29.4345C3.70527 29.4603 3.55104 29.4134 3.41575 29.499L2.81686 29.4999Z" fill="#06B085"/>
<path d="M31.3177 12.3495C31.3177 9.70307 31.3162 7.05633 31.3132 4.40928C31.3132 4.19109 31.3646 4.12665 31.5838 4.12757C33.5603 4.13617 35.537 4.13617 37.5141 4.12757C37.7188 4.12757 37.7594 4.18741 37.7594 4.38442C37.754 8.58054 37.7522 12.777 37.754 16.9737C37.754 17.5528 37.5519 18.0112 37.0433 18.3408C35.6083 19.2706 34.1895 20.2262 32.7636 21.1698C32.6214 21.271 32.4568 21.3343 32.2846 21.3539C31.7317 21.4009 31.4088 21.1045 31.3286 20.472C31.3192 20.3803 31.3156 20.288 31.3177 20.1958C31.3177 17.5813 31.3177 14.9659 31.3177 12.3495Z" fill="#06B085"/>
<path d="M34.5252 0.500474C35.3358 0.500474 36.1475 0.500474 36.9604 0.500474C37.2221 0.494201 37.476 0.591365 37.6691 0.771668C37.8622 0.951971 37.9796 1.20147 37.9968 1.46803C38.0383 2.08484 37.6802 2.54422 37.0948 2.62523C36.984 2.6417 36.8722 2.65061 36.7602 2.65193C35.257 2.65193 33.7556 2.65193 32.2559 2.65193C31.8681 2.65193 31.5109 2.57092 31.2728 2.21188C31.0347 1.85284 30.9923 1.46987 31.1826 1.0823C31.2607 0.90414 31.3889 0.753701 31.5509 0.6501C31.713 0.5465 31.9016 0.494418 32.0927 0.500474H34.5252Z" fill="#06B085"/>
</svg>
