<svg width="180" height="186" viewBox="0 0 180 186" fill="none" xmlns="http://www.w3.org/2000/svg">
<g filter="url(#filter0_d)">
<path fill-rule="evenodd" clip-rule="evenodd" d="M113.324 131.987H44.5455C39.7046 131.987 35.742 128.004 35.742 123.137V24.8482C35.742 19.9807 39.7046 16 44.5455 16H113.324C118.166 16 122.129 19.9807 122.129 24.8482V123.137C122.129 128.004 118.166 131.987 113.324 131.987Z" fill="#E0E2EE"/>
</g>
<path fill-rule="evenodd" clip-rule="evenodd" d="M107.453 136.189H38.675C33.834 136.189 29.8715 132.207 29.8715 127.339V29.0504C29.8715 24.1828 33.834 20.2021 38.675 20.2021H107.453C112.296 20.2021 116.258 24.1828 116.258 29.0504V127.339C116.258 132.207 112.296 136.189 107.453 136.189Z" fill="#E8EBF2"/>
<path fill-rule="evenodd" clip-rule="evenodd" d="M101.742 139.507H32.8217C27.9708 139.507 24 135.541 24 130.694V32.8121C24 27.9647 27.9708 24.0005 32.8217 24.0005H101.742C106.595 24.0005 110.566 27.9647 110.566 32.8121V130.694C110.566 135.541 106.595 139.507 101.742 139.507Z" fill="#D8DBEA"/>
<path fill-rule="evenodd" clip-rule="evenodd" d="M101.742 139.507H32.8217C27.9708 139.507 24 135.541 24 130.694V32.8121C24 27.9647 27.9708 24.0005 32.8217 24.0005H101.742C106.595 24.0005 110.566 27.9647 110.566 32.8121V130.694C110.566 135.541 106.595 139.507 101.742 139.507Z" fill="white"/>
<path fill-rule="evenodd" clip-rule="evenodd" d="M91.8082 53.8222H40.9023C39.4485 53.8222 38.2585 52.6877 38.2585 51.3017C38.2585 49.9138 39.4485 48.7793 40.9023 48.7793H91.8082C93.262 48.7793 94.452 49.9138 94.452 51.3017C94.452 52.6877 93.262 53.8222 91.8082 53.8222Z" fill="#E0E2EE"/>
<path fill-rule="evenodd" clip-rule="evenodd" d="M91.8082 68.9501H40.9023C39.4485 68.9501 38.2585 67.8156 38.2585 66.4296C38.2585 65.0417 39.4485 63.9072 40.9023 63.9072H91.8082C93.262 63.9072 94.452 65.0417 94.452 66.4296C94.452 67.8156 93.262 68.9501 91.8082 68.9501Z" fill="#E0E2EE"/>
<path fill-rule="evenodd" clip-rule="evenodd" d="M91.8082 84.08H40.9023C39.4485 84.08 38.2585 82.9455 38.2585 81.5595C38.2585 80.1735 39.4485 79.0371 40.9023 79.0371H91.8082C93.262 79.0371 94.452 80.1735 94.452 81.5595C94.452 82.9455 93.262 84.08 91.8082 84.08Z" fill="#E0E2EE"/>
<path fill-rule="evenodd" clip-rule="evenodd" d="M91.8082 99.207H40.9023C39.4485 99.207 38.2585 98.0725 38.2585 96.6865C38.2585 95.2986 39.4485 94.1641 40.9023 94.1641H91.8082C93.262 94.1641 94.452 95.2986 94.452 96.6865C94.452 98.0725 93.262 99.207 91.8082 99.207Z" fill="#E0E2EE"/>
<path fill-rule="evenodd" clip-rule="evenodd" d="M67.4744 114.337H40.9136C39.4536 114.337 38.2585 113.202 38.2585 111.816C38.2585 110.428 39.4536 109.294 40.9136 109.294H67.4744C68.9344 109.294 70.1295 110.428 70.1295 111.816C70.1295 113.202 68.9344 114.337 67.4744 114.337Z" fill="#E0E2EE"/>
<path fill-rule="evenodd" clip-rule="evenodd" d="M121.085 94.786C110.906 104.985 95.1474 106.136 83.7068 98.2613C82.2447 97.2369 80.853 96.0863 79.5553 94.786C78.8872 94.1188 78.2576 93.4302 77.6642 92.7052C76.4774 91.2574 75.438 89.7133 74.5863 88.1179C73.0858 85.4232 72.0655 82.5639 71.5084 79.6084C69.7112 70.3397 72.3985 60.3631 79.5553 53.1945C86.7292 46.0046 96.6863 43.3292 105.937 45.1128C108.885 45.688 111.741 46.7103 114.43 48.1966C116.024 49.0692 117.544 50.1107 118.991 51.2997C119.713 51.8921 120.4 52.5251 121.066 53.1945C122.366 54.4948 123.531 55.887 124.534 57.3541C132.396 68.8149 131.245 84.6063 121.085 94.786Z" fill="white" fill-opacity="0.1"/>
<path fill-rule="evenodd" clip-rule="evenodd" d="M118.237 92.776C107.647 103.391 90.4846 103.389 79.8926 92.776C69.3144 82.1754 69.3144 64.9751 79.9064 54.3626C90.4846 43.762 107.647 43.762 118.225 54.3626C128.815 64.9751 128.815 82.1754 118.237 92.776ZM123.672 48.9099C110.079 35.2878 88.0511 35.2878 74.4579 48.9099C60.8666 62.53 60.8548 84.6179 74.4461 98.24C86.8175 110.634 106.208 111.751 119.847 101.575C121.179 100.58 122.462 99.4643 123.686 98.24C124.907 97.0136 126.021 95.728 127.012 94.3931C137.166 80.7236 136.041 61.3056 123.672 48.9099Z" fill="#E0E2EE"/>
<path fill-rule="evenodd" clip-rule="evenodd" d="M177.167 149.59L176.596 150.162C172.82 153.947 166.638 153.947 162.861 150.162L128 115.227L142.306 100.891L177.167 135.825C180.944 139.611 180.944 145.804 177.167 149.59Z" fill="#E0E2EE"/>
<path fill-rule="evenodd" clip-rule="evenodd" d="M127.763 93.3252L138.064 103.649L130.751 110.975L120.452 100.652C121.811 99.6365 123.118 98.4979 124.369 97.2486C125.615 95.9992 126.752 94.6874 127.763 93.3252Z" fill="#E0E2EE"/>
<path fill-rule="evenodd" clip-rule="evenodd" d="M176.646 135.395L162.43 149.638L159.871 147.071L174.084 132.828L176.646 135.395Z" fill="#F1F2F7"/>
<path fill-rule="evenodd" clip-rule="evenodd" d="M143.097 101.384L128.492 116.02L126.323 113.845L140.927 99.21L143.097 101.384Z" fill="#F1F2F7"/>
<path fill-rule="evenodd" clip-rule="evenodd" d="M111.226 50.7129L75.4102 86.6028C74.0614 84.1803 73.1442 81.6097 72.6454 78.9526L103.592 47.9404C106.241 48.4595 108.808 49.3766 111.226 50.7129Z" fill="white" fill-opacity="0.5"/>
<path fill-rule="evenodd" clip-rule="evenodd" d="M122.968 59.243L84.2471 95.8475C82.8605 94.9328 81.5407 93.9032 80.3099 92.7396C79.6763 92.1406 79.0771 91.5263 78.5164 90.8775L117.709 53.8232C118.395 54.3553 119.047 54.9217 119.678 55.5207C120.909 56.6843 122.016 57.9302 122.968 59.243Z" fill="white" fill-opacity="0.5"/>
<defs>
<filter id="filter0_d" x="0.742004" y="0" width="156.387" height="185.987" filterUnits="userSpaceOnUse" color-interpolation-filters="sRGB">
<feFlood flood-opacity="0" result="BackgroundImageFix"/>
<feColorMatrix in="SourceAlpha" type="matrix" values="0 0 0 0 0 0 0 0 0 0 0 0 0 0 0 0 0 0 127 0"/>
<feOffset dy="19"/>
<feGaussianBlur stdDeviation="17.5"/>
<feColorMatrix type="matrix" values="0 0 0 0 0.226735 0 0 0 0 0.437054 0 0 0 0 0.687819 0 0 0 0.1 0"/>
<feBlend mode="normal" in2="BackgroundImageFix" result="effect1_dropShadow"/>
<feBlend mode="normal" in="SourceGraphic" in2="effect1_dropShadow" result="shape"/>
</filter>
</defs>
</svg>
