<svg width="20" height="20" viewBox="0 0 20 20" fill="none" xmlns="http://www.w3.org/2000/svg">
<path fill-rule="evenodd" clip-rule="evenodd" d="M9.5651 0H10.4347V1.75034C14.651 1.96889 18.031 5.34891 18.2496 9.56526H20V10.4348H18.2496C18.0309 14.6511 14.6509 18.0311 10.4347 18.2497V20H9.5651V18.2496C5.34895 18.0309 1.96912 14.651 1.75047 10.4348H0V9.56526H1.75047C1.96907 5.34901 5.34892 1.96906 9.5651 1.75035V0ZM2.58507 10.4348C2.80188 14.1906 5.80933 17.1982 9.5651 17.415V14.7632C7.27072 14.5564 5.4436 12.7293 5.23688 10.4348H2.58507ZM5.23689 9.56526H2.58506C2.80183 5.80939 5.8093 2.80183 9.5651 2.58496V5.23701C7.27078 5.44381 5.44369 7.27091 5.23689 9.56526ZM10.4347 2.58494C14.1906 2.80166 17.1982 5.80929 17.415 9.56526H14.763C14.5562 7.27085 12.7291 5.44371 10.4347 5.23699V2.58494ZM10.4347 14.7633C12.7291 14.5565 14.5563 12.7293 14.7631 10.4348H17.415C17.1982 14.1908 14.1906 17.1983 10.4347 17.4151V14.7633Z" fill="#0066FF"/>
</svg>
