<svg width="14" height="17" viewBox="0 0 14 17" fill="none" xmlns="http://www.w3.org/2000/svg">
<path d="M7.00724 10.716C7.37354 10.716 7.6752 10.4144 7.6752 10.0552V2.82983L7.62492 1.76685L8.06304 2.29116L9.06857 3.36133C9.18349 3.49061 9.34868 3.55525 9.51387 3.55525C9.84426 3.55525 10.1172 3.31823 10.1172 2.98066C10.1172 2.80111 10.0454 2.67182 9.92327 2.54972L7.51719 0.229834C7.34481 0.0574586 7.17962 0 7.00724 0C6.82769 0 6.66967 0.0574586 6.4973 0.229834L4.08404 2.54972C3.96194 2.67182 3.89012 2.80111 3.89012 2.98066C3.89012 3.31823 4.15586 3.55525 4.48625 3.55525C4.65144 3.55525 4.82382 3.49061 4.93874 3.36133L5.94426 2.29116L6.38956 1.75967L6.33211 2.82983V10.0552C6.33211 10.4144 6.63376 10.716 7.00724 10.716ZM2.86304 16.4547H11.1371C12.6956 16.4547 13.5001 15.6503 13.5001 14.1133V7.05304C13.5001 5.51602 12.6956 4.7116 11.1371 4.7116H9.19785V6.14088H11.0437C11.6973 6.14088 12.0708 6.48564 12.0708 7.17514V13.984C12.0708 14.6735 11.6973 15.0182 11.0437 15.0182H2.95641C2.29564 15.0182 1.92934 14.6735 1.92934 13.984V7.17514C1.92934 6.48564 2.29564 6.14088 2.95641 6.14088H4.82382V4.7116H2.86304C1.31166 4.7116 0.500061 5.50884 0.500061 7.05304V14.1133C0.500061 15.6503 1.31166 16.4547 2.86304 16.4547Z" fill="#0066FF" fill-opacity="0.5"/>
</svg>
