<svg width="14" height="15" viewBox="0 0 14 15" fill="none" xmlns="http://www.w3.org/2000/svg">
<path d="M13.6867 11.3307L11.4361 5.17289V1.57041C11.4361 1.40863 11.305 1.27744 11.1432 1.27744L10.0124 1.27739L9.61584 0.192455C9.56029 0.0404659 9.3921 -0.0376088 9.24011 0.0178492L5.7944 1.27721H5.71726C5.72177 1.14379 5.67367 1.00891 5.57207 0.907285L5.13171 0.466932C5.20991 0.352853 5.19854 0.195795 5.0972 0.094459C4.9828 -0.0199724 4.79733 -0.0199431 4.68287 0.094459L3.49991 1.27742H1.60162C1.43982 1.27742 1.30866 1.40857 1.30866 1.57038V2.91666L0.278339 3.29327C0.205362 3.31995 0.145949 3.3745 0.113225 3.44499C0.0804721 3.51545 0.0770738 3.59604 0.103733 3.66899L1.30863 6.9657V13.4293C1.30863 13.5911 1.43979 13.7223 1.6016 13.7223H3.77805L4.1746 14.8073C4.21802 14.9261 4.33025 14.9998 4.44978 14.9998C4.48318 14.9998 4.51714 14.994 4.55033 14.9819L7.99669 13.7223H11.1431C11.3049 13.7223 11.4361 13.5911 11.4361 13.4293V12.4652L13.5121 11.7065C13.585 11.6798 13.6445 11.6252 13.6772 11.5548C13.71 11.4843 13.7134 11.4037 13.6867 11.3307ZM1.30866 5.25884L0.754639 3.74299L1.30866 3.54053V5.25884ZM9.16605 0.668755L9.38853 1.27739L7.50108 1.2773L9.16605 0.668755ZM4.72116 0.88502L5.10171 1.26561C5.0382 1.35646 5.00609 1.46684 5.01224 1.57902C5.01239 1.58189 5.01298 1.5847 5.01318 1.58758C5.01336 1.59059 5.01324 1.59361 5.01353 1.59666C5.01409 1.60287 5.01538 1.60893 5.01617 1.61508C5.01719 1.62314 5.01819 1.6312 5.0196 1.6392C5.02109 1.64757 5.02305 1.65584 5.02499 1.66413C5.02701 1.6728 5.02894 1.68147 5.0314 1.69C5.03345 1.69706 5.03591 1.70391 5.03829 1.71085C5.04148 1.72029 5.04459 1.72969 5.04834 1.73892C5.05068 1.74469 5.05343 1.75023 5.05598 1.75591C5.06044 1.76581 5.06486 1.77572 5.06993 1.78533C5.07257 1.79028 5.07558 1.79499 5.07839 1.79986C5.08402 1.80964 5.08959 1.81946 5.09585 1.82886C5.09917 1.83381 5.10292 1.83847 5.1064 1.8433C5.11276 1.85212 5.11897 1.861 5.12588 1.86941C5.13107 1.8757 5.13684 1.88153 5.14235 1.88757C5.14821 1.89401 5.15377 1.90069 5.15999 1.90682C5.172 1.91871 5.18462 1.92999 5.19784 1.94065C5.19766 1.94054 5.19798 1.94077 5.19784 1.94065L5.72933 2.36697L5.06214 3.0342L4.63625 2.50317C4.60526 2.46453 4.5687 2.43146 4.52853 2.404C4.52563 2.40201 4.52297 2.39973 4.52004 2.39779C4.51769 2.39627 4.51517 2.39507 4.5128 2.3936C4.44167 2.34881 4.35976 2.32183 4.27421 2.31714C4.26513 2.31664 4.25608 2.31641 4.24702 2.31641C4.24442 2.31641 4.24184 2.31667 4.23923 2.3167C4.23328 2.31679 4.22737 2.31708 4.22145 2.31738C4.21398 2.31776 4.20654 2.31825 4.19912 2.31899C4.19321 2.31957 4.18732 2.32025 4.18143 2.32104C4.17405 2.32203 4.16669 2.32318 4.15937 2.32449C4.1536 2.32552 4.14783 2.3266 4.14211 2.32786C4.13473 2.32945 4.12744 2.33126 4.12017 2.3332C4.11463 2.33466 4.1091 2.3361 4.10359 2.33774C4.09621 2.33996 4.08891 2.34245 4.08165 2.34503C4.0764 2.34688 4.07116 2.34863 4.066 2.35063C4.0585 2.35356 4.05118 2.35681 4.04382 2.36009C4.03905 2.36223 4.03424 2.36419 4.02956 2.36648C4.02156 2.37034 4.01377 2.37462 4.006 2.3789C4.00217 2.38101 3.99824 2.38291 3.99446 2.38514C3.98301 2.39185 3.97178 2.39897 3.96086 2.40661L3.58018 2.02594L4.72116 0.88502ZM4.62436 14.331L4.40188 13.7223H6.2898L4.62436 14.331ZM1.89459 13.1363V1.86337H2.91404L2.78974 1.98767C2.67533 2.10208 2.67533 2.28758 2.78974 2.40198C2.84695 2.4592 2.92192 2.48779 2.99689 2.48779C3.05475 2.48779 3.11252 2.47057 3.16221 2.43649L3.60256 2.87691C3.68506 2.9594 3.79132 3.00944 3.90593 3.02066C3.9223 3.02227 3.93883 3.02307 3.9555 3.02307C3.96809 3.02307 3.9806 3.0226 3.99302 3.02169C4.05868 3.01682 4.12166 2.99904 4.17938 2.96998C4.19816 2.96052 4.21653 2.95009 4.23407 2.93822L4.66573 3.4764C4.72113 3.54545 4.79343 3.59783 4.8744 3.62932C4.92298 3.64822 4.97469 3.65956 5.02774 3.66246C5.03685 3.66296 5.04591 3.66319 5.05496 3.66319C5.05944 3.66319 5.06386 3.66266 5.06835 3.66252C5.07629 3.66231 5.0842 3.66193 5.09208 3.66134C5.10107 3.66067 5.11001 3.6597 5.11894 3.65853C5.12685 3.65751 5.1347 3.65642 5.14252 3.65502C5.15137 3.65343 5.16013 3.65147 5.16886 3.64942C5.17651 3.64763 5.18415 3.64585 5.19168 3.64368C5.20047 3.64116 5.20911 3.63823 5.21776 3.63524C5.22499 3.63275 5.23226 3.63035 5.23935 3.62751C5.24814 3.62402 5.25669 3.62001 5.26528 3.61602C5.27193 3.61292 5.27866 3.61002 5.28517 3.60665C5.29404 3.60205 5.30257 3.59683 5.31118 3.59171C5.31707 3.58819 5.32308 3.58494 5.32882 3.58116C5.33819 3.57501 5.34713 3.56821 5.35609 3.56141C5.36063 3.55796 5.36541 3.55485 5.36986 3.55125C5.38308 3.54053 5.39582 3.52916 5.40795 3.517L5.60295 3.322L5.99127 3.71033C6.04848 3.76754 6.12345 3.79614 6.19842 3.79614C6.27339 3.79614 6.34839 3.76751 6.40558 3.71033C6.51998 3.59593 6.51998 3.41042 6.40558 3.29602L6.01725 2.90773L6.21222 2.71276C6.31238 2.61259 6.36538 2.47402 6.35765 2.33258C6.34988 2.19114 6.28206 2.05916 6.17156 1.97054L6.03794 1.86337H10.8502V13.1363H1.89459ZM11.4361 11.8413V6.87978L13.0358 11.2567L11.4361 11.8413Z" fill="#0066FF" fill-opacity="0.5"/>
<path d="M10.2462 5.30213C10.2424 5.28338 10.2368 5.26493 10.2295 5.24706C10.2222 5.22948 10.2131 5.21249 10.2026 5.19667C10.1917 5.18055 10.1797 5.16561 10.1659 5.15214C10.1525 5.13866 10.1375 5.12635 10.1214 5.11581C10.1056 5.10526 10.0886 5.09618 10.071 5.08886C10.0531 5.08153 10.035 5.07567 10.0162 5.07216C9.97842 5.06454 9.93945 5.06454 9.90166 5.07216C9.88291 5.07567 9.86446 5.08153 9.84688 5.08886C9.8293 5.09618 9.81204 5.10526 9.79622 5.11581C9.78011 5.12635 9.76514 5.13866 9.75167 5.15214C9.73819 5.16561 9.72588 5.18055 9.71537 5.19667C9.70482 5.21249 9.69571 5.22948 9.68839 5.24706C9.68106 5.26493 9.67552 5.28338 9.67172 5.30213C9.66791 5.32088 9.66586 5.34022 9.66586 5.35926C9.66586 5.43631 9.6972 5.51189 9.75169 5.56639C9.76514 5.57986 9.78011 5.59214 9.7962 5.60271C9.81202 5.61326 9.8293 5.62234 9.84685 5.62967C9.86446 5.63699 9.88288 5.64256 9.90163 5.64636C9.92041 5.65017 9.93972 5.65222 9.95876 5.65222C9.9781 5.65222 9.99714 5.65017 10.0162 5.64636C10.0349 5.64256 10.0531 5.63699 10.071 5.62967C10.0885 5.62234 10.1055 5.61326 10.1214 5.60271C10.1375 5.59217 10.1524 5.57986 10.1659 5.56639C10.2207 5.51189 10.2518 5.43631 10.2518 5.35926C10.2518 5.34022 10.25 5.32088 10.2462 5.30213Z" fill="#0066FF" fill-opacity="0.5"/>
<path d="M8.89559 5.06644H6.52382C6.36201 5.06644 6.23085 5.1976 6.23085 5.35941C6.23085 5.52121 6.36201 5.65237 6.52382 5.65237H8.89559C9.05736 5.65237 9.18855 5.52121 9.18855 5.35941C9.18855 5.1976 9.05736 5.06644 8.89559 5.06644Z" fill="#0066FF" fill-opacity="0.5"/>
<path d="M9.95872 6.27126H6.52382C6.36201 6.27126 6.23085 6.40242 6.23085 6.56422C6.23085 6.72602 6.36201 6.85718 6.52382 6.85718H9.95872C10.1205 6.85718 10.2517 6.72602 10.2517 6.56422C10.2517 6.40242 10.1205 6.27126 9.95872 6.27126Z" fill="#0066FF" fill-opacity="0.5"/>
<path d="M4.07264 4.37981C3.20102 4.37981 2.4919 5.08893 2.4919 5.96055C2.4919 6.8322 3.20102 7.54129 4.07264 7.54129C4.94427 7.54129 5.65336 6.83217 5.65336 5.96055C5.65339 5.08893 4.94427 4.37981 4.07264 4.37981ZM4.07264 6.95537C3.5241 6.95537 3.0778 6.5091 3.0778 5.96052C3.0778 5.41195 3.52407 4.96568 4.07264 4.96568C4.62122 4.96568 5.06746 5.41195 5.06746 5.96052C5.06746 6.5091 4.62119 6.95537 4.07264 6.95537Z" fill="#0066FF" fill-opacity="0.5"/>
<path d="M4.71902 5.50013C4.60462 5.38572 4.41911 5.38575 4.30471 5.50015L3.93485 5.87002L3.74175 5.7911C3.59199 5.72993 3.42096 5.80164 3.3597 5.95141C3.29847 6.10117 3.37025 6.27223 3.52001 6.33346L3.89339 6.48609C3.92928 6.50074 3.9669 6.50789 4.00419 6.50789C4.08045 6.50789 4.15539 6.47809 4.2114 6.42205L4.71902 5.91443C4.83342 5.80003 4.83342 5.61453 4.71902 5.50013Z" fill="#0066FF" fill-opacity="0.5"/>
<path d="M10.2462 9.20588C10.2424 9.18742 10.2368 9.16896 10.2295 9.15109C10.2222 9.13351 10.2131 9.11652 10.2026 9.1007C10.1917 9.08459 10.1797 9.06965 10.1659 9.05617C10.1525 9.0427 10.1375 9.03039 10.1214 9.01955C10.1056 9.009 10.0886 8.99992 10.071 8.9926C10.0531 8.98528 10.035 8.97971 10.0162 8.9759C9.97842 8.96828 9.93945 8.96828 9.90166 8.9759C9.88291 8.97971 9.86446 8.98528 9.84688 8.9926C9.8293 8.99992 9.81204 9.009 9.79622 9.01955C9.78011 9.03039 9.76514 9.0427 9.75167 9.05617C9.73819 9.06965 9.72588 9.08459 9.71537 9.1007C9.70482 9.11652 9.69571 9.13351 9.68839 9.15109C9.68106 9.16896 9.67552 9.18742 9.67172 9.20588C9.66791 9.22492 9.66586 9.24425 9.66586 9.2633C9.66586 9.28234 9.66791 9.30167 9.67172 9.32043C9.67552 9.33917 9.68106 9.35763 9.68839 9.37521C9.69571 9.39308 9.70479 9.41007 9.71537 9.42589C9.72588 9.442 9.73819 9.45695 9.75167 9.47042C9.76514 9.4839 9.78011 9.4962 9.79622 9.50675C9.81204 9.5173 9.82933 9.52638 9.84688 9.5337C9.86448 9.54103 9.88291 9.54659 9.90166 9.5504C9.92044 9.55421 9.93975 9.55626 9.95879 9.55626C9.97813 9.55626 9.99717 9.55421 10.0162 9.5504C10.035 9.54659 10.0531 9.54103 10.071 9.5337C10.0886 9.52638 10.1056 9.5173 10.1214 9.50675C10.1375 9.4962 10.1525 9.4839 10.1659 9.47042C10.1797 9.45695 10.1917 9.442 10.2026 9.42589C10.2131 9.41007 10.2222 9.39308 10.2295 9.37521C10.2368 9.35763 10.2424 9.33917 10.2462 9.32043C10.25 9.30167 10.2518 9.28234 10.2518 9.2633C10.2518 9.24425 10.25 9.22492 10.2462 9.20588Z" fill="#0066FF" fill-opacity="0.5"/>
<path d="M8.89559 8.97019H6.52382C6.36201 8.97019 6.23085 9.10135 6.23085 9.26315C6.23085 9.42495 6.36201 9.55611 6.52382 9.55611H8.89559C9.05736 9.55611 9.18855 9.42495 9.18855 9.26315C9.18855 9.10135 9.05736 8.97019 8.89559 8.97019Z" fill="#0066FF" fill-opacity="0.5"/>
<path d="M9.95872 10.175H6.52382C6.36201 10.175 6.23085 10.3062 6.23085 10.468C6.23085 10.6298 6.36201 10.7609 6.52382 10.7609H9.95872C10.1205 10.7609 10.2517 10.6298 10.2517 10.468C10.2517 10.3062 10.1205 10.175 9.95872 10.175Z" fill="#0066FF" fill-opacity="0.5"/>
<path d="M4.07264 8.28538C3.20102 8.28538 2.4919 8.9945 2.4919 9.86616C2.4919 10.7378 3.20102 11.4469 4.07264 11.4469C4.94427 11.4469 5.65336 10.7378 5.65336 9.86616C5.65339 8.99447 4.94427 8.28538 4.07264 8.28538ZM4.07264 10.861C3.5241 10.861 3.0778 10.4147 3.0778 9.86613C3.0778 9.31755 3.52407 8.87128 4.07264 8.87128C4.62122 8.87128 5.06746 9.31755 5.06746 9.86613C5.06746 10.4147 4.62119 10.861 4.07264 10.861Z" fill="#0066FF" fill-opacity="0.5"/>
<path d="M4.71902 9.40571C4.60462 9.29131 4.41911 9.29131 4.30471 9.40574L3.93485 9.77561L3.74175 9.69668C3.59199 9.63551 3.42096 9.70723 3.3597 9.85699C3.29847 10.0068 3.37025 10.1778 3.52001 10.239L3.89339 10.3917C3.92928 10.4063 3.9669 10.4135 4.00419 10.4135C4.08045 10.4135 4.15539 10.3837 4.2114 10.3276L4.71902 9.82002C4.83342 9.70562 4.83342 9.52011 4.71902 9.40571Z" fill="#0066FF" fill-opacity="0.5"/>
</svg>
