<svg width="15" height="15" viewBox="0 0 15 15" fill="none" xmlns="http://www.w3.org/2000/svg">
<path d="M14.2656 7.38272H12.8008V6.72645C12.8008 5.92136 12.2389 5.24373 11.4824 5.0558V0.439446C11.4824 0.196755 11.2857 0 11.043 0H0.642754C0.400063 0 0.203308 0.196755 0.203308 0.439446V12.4803C0.203308 12.723 0.400063 12.9197 0.642754 12.9197H7.41022V13.2798C7.41022 14.2282 8.183 14.9998 9.13285 14.9998H12.9824C13.9322 14.9998 14.705 14.2282 14.705 13.2798V7.82217C14.705 7.57947 14.5083 7.38272 14.2656 7.38272ZM11.9219 6.72645V7.38272H10.1934V6.72645C10.1934 6.26122 10.5811 5.88271 11.0576 5.88271C11.5342 5.88271 11.9219 6.26119 11.9219 6.72645ZM1.0822 12.0408V0.878892H10.6035V5.06347C9.86189 5.26146 9.31448 5.93179 9.31448 6.72642V7.38269H7.84967C7.60697 7.38269 7.41022 7.57944 7.41022 7.82213V12.0408H1.0822ZM13.8261 13.2798C13.8261 13.7436 13.4476 14.1209 12.9824 14.1209H9.13285C8.66762 14.1209 8.28911 13.7436 8.28911 13.2798V8.26161H9.31448V9.41879C9.31448 9.66148 9.51124 9.85823 9.75393 9.85823C9.99662 9.85823 10.1934 9.66148 10.1934 9.41879V8.26161H11.9219V9.41879C11.9219 9.66148 12.1186 9.85823 12.3613 9.85823C12.604 9.85823 12.8008 9.66148 12.8008 9.41879V8.26161H13.8261V13.2798Z" fill="#0066FF" fill-opacity="0.5"/>
<path d="M3.27597 1.89778L2.77652 2.43428L2.7431 2.39271C2.59105 2.20355 2.31443 2.1734 2.12527 2.32548C1.9361 2.4775 1.90598 2.75411 2.058 2.94328L2.40956 3.3807C2.48951 3.48014 2.60866 3.53996 2.73612 3.54459C2.74149 3.54476 2.74679 3.54488 2.75212 3.54488C2.87385 3.54488 2.99045 3.49432 3.07374 3.40487L3.9192 2.49669C4.08461 2.31906 4.07465 2.04098 3.89699 1.8756C3.71946 1.71022 3.44135 1.72016 3.27597 1.89778Z" fill="#0066FF" fill-opacity="0.5"/>
<path d="M5.35947 3.09077H9.28516C9.52785 3.09077 9.7246 2.89401 9.7246 2.65132C9.7246 2.40863 9.52785 2.21188 9.28516 2.21188H5.35947C5.11678 2.21188 4.92003 2.40863 4.92003 2.65132C4.92003 2.89401 5.11678 3.09077 5.35947 3.09077Z" fill="#0066FF" fill-opacity="0.5"/>
<path d="M3.27597 4.56375L2.77652 5.10026L2.7431 5.05868C2.59105 4.86952 2.31443 4.8394 2.12527 4.99145C1.9361 5.1435 1.90598 5.42008 2.058 5.60925L2.40956 6.04668C2.48951 6.14611 2.60866 6.20593 2.73612 6.21056C2.74149 6.21073 2.74679 6.21085 2.75212 6.21085C2.87385 6.21085 2.99045 6.16029 3.07374 6.07084L3.9192 5.16266C4.08461 4.98503 4.07465 4.70695 3.89699 4.54157C3.71946 4.37619 3.44135 4.38613 3.27597 4.56375Z" fill="#0066FF" fill-opacity="0.5"/>
<path d="M5.35947 5.75674H7.82031C8.063 5.75674 8.25976 5.55999 8.25976 5.31729C8.25976 5.0746 8.063 4.87785 7.82031 4.87785H5.35947C5.11678 4.87785 4.92003 5.0746 4.92003 5.31729C4.92003 5.55999 5.11678 5.75674 5.35947 5.75674Z" fill="#0066FF" fill-opacity="0.5"/>
<path d="M3.27597 7.22972L2.77652 7.76623L2.7431 7.72465C2.59105 7.53546 2.31443 7.50537 2.12527 7.65742C1.9361 7.80944 1.90598 8.08605 2.058 8.27522L2.40956 8.71265C2.48951 8.81208 2.60866 8.8719 2.73612 8.87653C2.74149 8.87671 2.74679 8.87682 2.75212 8.87682C2.87385 8.87682 2.99045 8.82626 3.07374 8.73682L3.9192 7.82863C4.08461 7.651 4.07465 7.37292 3.89699 7.20754C3.71946 7.04217 3.44135 7.0521 3.27597 7.22972Z" fill="#0066FF" fill-opacity="0.5"/>
<path d="M6.09179 7.54382H5.35947C5.11678 7.54382 4.92003 7.74057 4.92003 7.98327C4.92003 8.22596 5.11678 8.42271 5.35947 8.42271H6.09179C6.33449 8.42271 6.53124 8.22596 6.53124 7.98327C6.53124 7.74057 6.33449 7.54382 6.09179 7.54382Z" fill="#0066FF" fill-opacity="0.5"/>
</svg>
