<svg width="14" height="15" viewBox="0 0 14 15" fill="none" xmlns="http://www.w3.org/2000/svg">
<path d="M0.585928 15C0.26232 15 0 14.7377 0 14.4141C0 11.474 2.3919 9.08212 5.33194 9.08212H6.21083C6.81249 9.08212 7.40329 9.18173 7.96677 9.37816C8.27233 9.48469 8.4337 9.81878 8.32715 10.1243C8.22062 10.4299 7.88653 10.5912 7.581 10.4847C7.14182 10.3316 6.68084 10.254 6.21083 10.254H5.33194C3.03806 10.254 1.17186 12.1202 1.17186 14.4141C1.17186 14.7377 0.909536 15 0.585928 15ZM9.66781 3.95526C9.66781 1.77446 7.89359 0.000244141 5.7128 0.000244141C3.532 0.000244141 1.75778 1.77446 1.75778 3.95526C1.75778 6.13605 3.532 7.91027 5.7128 7.91027C7.89359 7.91027 9.66781 6.13605 9.66781 3.95526ZM8.49595 3.95526C8.49595 5.48989 7.24743 6.73841 5.7128 6.73841C4.17816 6.73841 2.92964 5.48989 2.92964 3.95526C2.92964 2.42062 4.17816 1.1721 5.7128 1.1721C7.24743 1.1721 8.49595 2.42062 8.49595 3.95526ZM12.6853 11.4844H10.9276V9.72664C10.9276 9.40304 10.6652 9.14072 10.3416 9.14072C10.018 9.14072 9.7557 9.40304 9.7557 9.72664V11.4844H7.99791C7.67431 11.4844 7.41199 11.7467 7.41199 12.0704C7.41199 12.394 7.67431 12.6563 7.99791 12.6563H9.7557V14.4141C9.7557 14.7377 10.018 15 10.3416 15C10.6652 15 10.9276 14.7377 10.9276 14.4141V12.6563H12.6853C13.0089 12.6563 13.2713 12.394 13.2713 12.0704C13.2713 11.7467 13.0089 11.4844 12.6853 11.4844Z" fill="#0066FF" fill-opacity="0.5"/>
</svg>
