<svg width="16" height="15" viewBox="0 0 16 15" fill="none" xmlns="http://www.w3.org/2000/svg">
<path d="M15.5863 3.1909L14.9648 2.56947L14.1961 3.33821C13.6923 3.04879 13.0368 3.11878 12.6068 3.54879L12.3474 3.80824V0H3.08933L0.771484 2.31784V14.9998H12.3474V7.80845L14.607 5.54888C15.037 5.11887 15.107 4.46339 14.8175 3.95964L15.5863 3.1909ZM6.90515 10.6266L7.52916 11.2506L6.44769 11.708L6.90515 10.6266ZM8.21722 10.6957L7.46005 9.93854L12.2961 5.10246L13.0533 5.85963L8.21722 10.6957ZM3.32877 1.00349V2.55728H1.77497L3.32877 1.00349ZM11.4685 14.1209H1.65038V3.43617H4.20766V0.878892H11.4685V4.68713L10.0828 6.07285H3.01899V6.95174H9.20389L8.325 7.83063H3.01899V8.70952H7.44611L6.2601 9.89553L5.49561 11.7029L4.88139 11.0887L3.89996 12.0701H2.52927V12.949H4.26399L4.88139 12.3316L5.57955 13.0295L8.2602 11.8956L11.4685 8.68732V14.1209ZM13.9855 4.92742L13.6748 5.23816L12.9176 4.48097L13.2283 4.17022C13.3997 3.9989 13.6784 3.99887 13.8498 4.17022L13.9855 4.30592C14.1568 4.47728 14.1568 4.75606 13.9855 4.92742Z" fill="#0066FF" fill-opacity="0.5"/>
<path d="M4.25775 4.31572H8.86353V5.19462H4.25775V4.31572Z" fill="#0066FF" fill-opacity="0.5"/>
</svg>
