<svg width="205" height="257" viewBox="0 0 205 257" fill="none" xmlns="http://www.w3.org/2000/svg">
<g filter="url(#filter0_d)">
<rect x="35" y="16" width="135" height="187" rx="15" fill="white"/>
<rect x="35" y="16" width="135" height="187" rx="15" fill="#8A9AAF" fill-opacity="0.3"/>
</g>
<rect x="46" y="43" width="113" height="144" rx="2" fill="white"/>
<ellipse cx="127.15" cy="155.033" rx="15.411" ry="15.3608" fill="#8A9AAF" fill-opacity="0.3"/>
<path d="M124.679 160.732C124.972 161.026 125.355 161.172 125.739 161.172C126.123 161.172 126.507 161.026 126.8 160.732L134.3 153.232C134.886 152.646 134.886 151.697 134.3 151.111C133.714 150.525 132.765 150.525 132.179 151.111L125.739 157.55L122.3 154.111C121.714 153.526 120.764 153.526 120.179 154.111C119.593 154.697 119.593 155.647 120.179 156.232L124.679 160.732Z" fill="white"/>
<rect x="62" y="76" width="81" height="7" rx="3.5" fill="#8A9AAF" fill-opacity="0.3"/>
<rect x="62" y="92" width="81" height="7" rx="3.5" fill="#8A9AAF" fill-opacity="0.3"/>
<rect x="62" y="109" width="81" height="7" rx="3.5" fill="#8A9AAF" fill-opacity="0.3"/>
<rect x="62" y="144" width="36" height="7" rx="3.5" fill="#8A9AAF" fill-opacity="0.3"/>
<rect x="62" y="158" width="22" height="7" rx="3.5" fill="#8A9AAF" fill-opacity="0.3"/>
<path fill-rule="evenodd" clip-rule="evenodd" d="M77 26H129V52.9781C129 56.4151 125.612 58.8274 122.364 57.7031L104.636 51.5662C103.576 51.1994 102.424 51.1994 101.364 51.5662L83.6356 57.7031C80.3876 58.8274 77 56.4151 77 52.9781V26Z" stroke="#8A9AAF" stroke-width="2"/>
<rect x="64" y="6" width="77" height="25" rx="6" fill="white"/>
<rect x="64" y="6" width="77" height="25" rx="6" fill="#8A9AAF" fill-opacity="0.1"/>
<defs>
<filter id="filter0_d" x="0" y="0" width="205" height="257" filterUnits="userSpaceOnUse" color-interpolation-filters="sRGB">
<feFlood flood-opacity="0" result="BackgroundImageFix"/>
<feColorMatrix in="SourceAlpha" type="matrix" values="0 0 0 0 0 0 0 0 0 0 0 0 0 0 0 0 0 0 127 0"/>
<feOffset dy="19"/>
<feGaussianBlur stdDeviation="17.5"/>
<feColorMatrix type="matrix" values="0 0 0 0 0.226735 0 0 0 0 0.437054 0 0 0 0 0.687819 0 0 0 0.1 0"/>
<feBlend mode="normal" in2="BackgroundImageFix" result="effect1_dropShadow"/>
<feBlend mode="normal" in="SourceGraphic" in2="effect1_dropShadow" result="shape"/>
</filter>
</defs>
</svg>
